<?xml version="1.0" encoding="iso-8859-1"?>
<!-- Generator: Adobe Illustrator 19.0.0, SVG Export Plug-In . SVG Version: 6.00 Build 0)  -->
<svg version="1.1" id="Capa_1" xmlns="http://www.w3.org/2000/svg" xmlns:xlink="http://www.w3.org/1999/xlink" x="0px" y="0px"
	 viewBox="0 0 512.001 512.001" style="enable-background:new 0 0 512.001 512.001;" xml:space="preserve">
<path style="fill:#965A50;" d="M488.41,17.177c6.277,0.203,9.992,7.124,6.872,12.576c-4.956,8.663-9.648,22.746-7.473,43.669
	c5.343,51.435-7.348,92.85-63.459,124.913L328.162,94.129C347.655,73.071,412.629,14.732,488.41,17.177z"/>
<path style="fill:#824D51;" d="M494.616,20.437c1.941,2.552,2.472,6.163,0.667,9.315c-4.956,8.663-9.648,22.746-7.473,43.669
	c5.343,51.435-7.348,92.85-63.459,124.913l-52.677-57.066C403.892,61.797,456.604,29.467,494.616,20.437z"/>
<path style="fill:#965A50;" d="M23.63,17.177c-6.277,0.203-9.992,7.124-6.872,12.576c4.956,8.663,9.648,22.746,7.473,43.669
	c-5.343,51.435,7.348,92.85,63.459,124.913L183.879,94.13C164.386,73.071,99.412,14.732,23.63,17.177z"/>
<path style="fill:#824D51;" d="M17.424,20.437c-1.941,2.552-2.472,6.163-0.667,9.315c4.956,8.663,9.648,22.746,7.473,43.669
	c-5.343,51.435,7.348,92.85,63.459,124.913l52.677-57.066C108.149,61.797,55.436,29.467,17.424,20.437z"/>
<path style="fill:#AF6E5A;" d="M460.422,300.522c0,108.461-84.165,194.394-204.402,194.394S51.618,408.983,51.618,300.522
	S151.815,62.066,256.02,62.066S460.422,192.062,460.422,300.522z"/>
<path style="fill:#965A50;" d="M119.752,304.602c0-86.33,45.217-184.102,106.466-239.056C133.51,86.84,51.618,202.47,51.618,300.522
	c0,89.302,57.085,163.282,144.354,186.65C148.354,445.265,119.752,379.488,119.752,304.602z"/>
<path style="fill:#4B3F4E;" d="M167.847,270.475L167.847,270.475c-13.281,0-24.047-10.766-24.047-24.047v-8.015
	c0-13.281,10.766-24.047,24.047-24.047l0,0c13.281,0,24.047,10.766,24.047,24.047v8.015
	C191.894,259.709,181.128,270.475,167.847,270.475z"/>
<path style="fill:#5D5360;" d="M167.847,214.366v28.055c0,6.64,5.384,12.024,12.024,12.024s12.024-5.384,12.024-12.024v-4.008
	C191.894,225.132,181.128,214.366,167.847,214.366z"/>
<circle style="fill:#FFFFFF;" cx="167.847" cy="230.401" r="8.019"/>
<path style="fill:#4B3F4E;" d="M344.194,270.475L344.194,270.475c-13.281,0-24.047-10.766-24.047-24.047v-8.015
	c0-13.281,10.766-24.047,24.047-24.047l0,0c13.281,0,24.047,10.766,24.047,24.047v8.015
	C368.241,259.709,357.475,270.475,344.194,270.475z"/>
<path style="fill:#5D5360;" d="M344.193,214.366v28.055c0,6.64,5.384,12.024,12.024,12.024s12.024-5.384,12.024-12.024v-4.008
	C368.241,225.132,357.475,214.366,344.193,214.366z"/>
<circle style="fill:#FFFFFF;" cx="344.193" cy="230.401" r="8.019"/>
<path style="fill:#C9C6CA;" d="M33.04,294.23c5.032,33.244,27.396,108.781,126.791,123.535l16.032-59.116
	c0,0-90.491-13.922-135.253-67.712C37.787,287.546,32.38,289.868,33.04,294.23z"/>
<path style="fill:#AEA8AF;" d="M159.831,417.766l6.19-22.826v-0.001c-85.865-16.022-119.94-79.346-130.48-105.268
	c-1.634,0.697-2.834,2.37-2.502,4.561C38.073,327.475,60.437,403.011,159.831,417.766z"/>
<path style="fill:#C9C6CA;" d="M479,294.23c-5.032,33.244-27.396,108.781-126.791,123.535l-16.032-59.116
	c0,0,90.491-13.922,135.253-67.712C474.254,287.546,479.661,289.868,479,294.23z"/>
<path style="fill:#AEA8AF;" d="M352.209,417.766l-6.19-22.826v-0.001c85.865-16.022,119.94-79.346,130.48-105.268
	c1.634,0.697,2.834,2.37,2.502,4.561C473.968,327.475,451.603,403.011,352.209,417.766z"/>
<path style="fill:#6F6571;" d="M356.307,407.839c0,55.18-70.158,37.734-100.218,37.734c-29.433,0-100.176,17.446-100.176-37.734
	c0-56.357,44.801-95.916,100.139-95.916S356.307,351.482,356.307,407.839z"/>
<g>
	<path style="fill:#4B3F4E;" d="M235.938,404.885c-5.547,10.89-16.844,15.841-25.232,11.057c-8.388-4.784-10.692-17.49-5.145-28.38
		c5.547-10.89,16.844-15.841,25.232-11.057C239.18,381.287,241.484,393.993,235.938,404.885z"/>
	<path style="fill:#4B3F4E;" d="M276.103,404.885c5.547,10.89,16.844,15.841,25.232,11.057c8.388-4.784,10.692-17.49,5.145-28.38
		c-5.547-10.89-16.844-15.841-25.232-11.057C272.86,381.287,270.556,393.993,276.103,404.885z"/>
</g>
<path d="M234.507,369.989c-5.201-2.966-11.391-3.605-17.433-1.797c-7.546,2.258-14.179,8.077-18.198,15.966
	c-7.451,14.632-3.889,31.454,8.113,38.298c3.262,1.86,6.912,2.805,10.672,2.805c2.235,0,4.508-0.334,6.759-1.008
	c7.547-2.258,14.18-8.077,18.198-15.966h-0.001C250.073,393.656,246.509,376.834,234.507,369.989z M229.255,401.481L229.255,401.481
	c-2.135,4.19-5.548,7.331-9.132,8.403c-2.133,0.639-4.052,0.485-5.703-0.457c-4.78-2.726-5.798-11.353-2.178-18.462
	c2.135-4.19,5.549-7.331,9.132-8.403c0.86-0.258,1.687-0.386,2.474-0.386c1.164,0,2.245,0.281,3.23,0.843
	C231.858,385.745,232.876,394.372,229.255,401.481z"/>
<path d="M294.965,368.193c-6.04-1.806-12.229-1.168-17.433,1.797c-12.002,6.844-15.565,23.667-8.112,38.298
	c4.019,7.888,10.65,13.707,18.198,15.966c2.252,0.674,4.524,1.008,6.759,1.008c3.759,0,7.41-0.945,10.672-2.805
	c12.002-6.843,15.565-23.666,8.112-38.299C309.144,376.27,302.511,370.45,294.965,368.193z M297.621,409.427
	c-1.651,0.942-3.57,1.096-5.703,0.457c-3.585-1.072-6.997-4.214-9.131-8.403h-0.001c-3.621-7.108-2.604-15.735,2.177-18.462
	c0.985-0.562,2.066-0.843,3.231-0.843c0.786,0,1.612,0.128,2.473,0.386c3.584,1.072,6.997,4.214,9.131,8.403
	C303.417,398.074,302.4,406.701,297.621,409.427z"/>
<path d="M191.894,230.913c-4.143,0-7.499,3.358-7.499,7.499v8.016c0,9.124-7.423,16.548-16.549,16.548
	c-9.124,0-16.548-7.423-16.548-16.548v-8.016c0-9.124,7.423-16.548,16.548-16.548c4.143,0,7.499-3.358,7.499-7.499
	s-3.357-7.499-7.499-7.499c-17.395,0-31.546,14.152-31.546,31.546v8.016c0,17.395,14.151,31.546,31.546,31.546
	s31.547-14.152,31.547-31.546v-8.016C199.394,234.271,196.037,230.913,191.894,230.913z"/>
<path d="M368.241,230.913c-4.143,0-7.499,3.358-7.499,7.499v8.016c0,9.124-7.423,16.548-16.548,16.548
	c-9.125,0-16.549-7.423-16.549-16.548v-8.016c0-9.124,7.423-16.548,16.549-16.548c4.143,0,7.499-3.358,7.499-7.499
	s-3.357-7.499-7.499-7.499c-17.395,0-31.547,14.152-31.547,31.546v8.016c0,17.395,14.152,31.546,31.547,31.546
	c17.396,0,31.546-14.152,31.546-31.546v-8.016C375.74,234.271,372.383,230.913,368.241,230.913z"/>
<path d="M511.773,16.654c-0.753-2.982-3.25-5.203-6.299-5.602c-37.795-4.946-75.386,2.602-111.728,22.433
	c-26.828,14.641-46.82,32.774-58.028,44.299c-25.821-15.214-52.85-23.218-79.697-23.218s-53.876,8.004-79.697,23.218
	c-11.208-11.525-31.201-29.659-58.028-44.299C81.952,13.654,44.363,6.105,6.566,11.053c-3.049,0.399-5.582,2.593-6.333,5.575
	c-0.753,2.982,0.355,6.095,2.851,7.892c0.708,0.537,17.283,13.536,13.688,48.127c-3.009,28.962-0.546,51.454,7.749,70.781
	c8.595,20.027,23.998,37.443,46.994,53.132c-13.875,27.858-23.685,57.261-28.33,85.672c-1.83-2.489-3.586-5.057-5.248-7.714
	c-1.721-2.753-5.016-4.085-8.169-3.303c-3.15,0.783-5.44,3.505-5.671,6.743c-0.088,1.221-1.972,30.28,12.384,63.037
	c5.691,12.985,14.502,27.796,28.078,41.638c9.638,33.389,34.33,63.868,69.577,85.858c35.068,21.878,78.354,33.927,121.882,33.927
	s86.813-12.049,121.882-33.927c35.247-21.989,59.939-52.468,69.577-85.858c13.576-13.842,22.387-28.653,28.078-41.638
	c14.355-32.757,12.472-61.816,12.384-63.037c-0.23-3.239-2.521-5.961-5.671-6.743c-3.151-0.782-6.447,0.55-8.169,3.303
	c-1.663,2.66-3.423,5.224-5.254,7.711c-4.646-28.41-14.438-57.816-28.314-85.674c22.991-15.688,38.392-33.1,46.985-53.126
	c8.295-19.328,10.758-41.82,7.749-70.781c-3.595-34.591,12.98-47.59,13.617-48.074C511.38,22.774,512.525,19.635,511.773,16.654z
	 M163.424,86.064c-11.006,7.641-21.745,16.6-32.095,26.845c-12.689-28.897-30.352-52.586-52.636-70.486
	c-7.897-6.344-15.753-11.457-23.348-15.585c18.789,3.2,37.43,9.808,55.765,19.813C134.656,59.5,152.597,75.233,163.424,86.064z
	 M38.305,137.513c-7.246-16.883-9.348-37.001-6.613-63.316c2.036-19.59-1.523-33.875-6.159-43.752
	c26.793,8.674,69.361,31.983,94.534,94.304c-3.167,3.519-6.295,7.147-9.374,10.912c-12.025,14.706-22.824,30.748-32.148,47.53
	C58.547,169.313,45.676,154.69,38.305,137.513z M40.785,302.901c16.932,18.596,39.65,34.457,66.904,46.57
	c20.28,9.013,37.705,13.632,45.873,15.512c-5.854,13.363-9.066,28.276-9.066,44.204c0,0.234,0.011,0.46,0.013,0.692
	c-45.877-11.524-77.502-37.107-94.034-74.333C45.225,323.727,42.348,312.327,40.785,302.901z M352.725,409.188
	c0,11.022-2.901,19.05-8.868,24.543c-14.277,13.142-45.083,10.585-67.579,8.72c-7.417-0.615-14.424-1.197-20.189-1.197
	c-5.623,0-12.52,0.576-19.824,1.186c-22.578,1.885-53.499,4.467-67.893-8.776c-5.974-5.495-8.876-13.501-8.876-24.476
	c0-26.102,9.983-49.892,28.111-66.99c17.833-16.82,42.141-26.082,68.445-26.082C311.165,316.116,352.725,356.128,352.725,409.188z
	 M369.963,455.763c-32.719,20.412-73.184,31.653-113.943,31.653s-81.223-11.241-113.943-31.653
	c-23.196-14.471-41.326-32.812-52.848-53.128c15.21,9.77,34.078,17.979,57.479,23.169c2.203,7.537,6.039,13.866,11.507,18.896
	c19.237,17.699,53.949,14.801,79.296,12.685c6.982-0.583,13.58-1.134,18.577-1.134c5.146,0,11.851,0.556,18.949,1.146
	c9.396,0.779,19.602,1.626,29.719,1.626c18.592,0,36.877-2.861,49.259-14.258c5.486-5.05,9.328-11.416,11.524-19.009
	c23.304-5.194,42.108-13.38,57.271-23.121C411.289,422.951,393.16,441.293,369.963,455.763z M392.985,346.257
	c1.659,3.795,6.084,5.532,9.874,3.87c32.409-14.158,54.081-31.508,68.43-47.282c-1.534,9.26-4.351,20.448-9.469,32.128
	c-16.433,37.496-48.081,63.255-94.107,74.861c0.001-0.217,0.012-0.428,0.012-0.646c0-15.683-3.143-30.664-9.112-44.239
	c3.183-0.738,7.731-1.882,13.29-3.528c3.972-1.176,6.237-5.35,5.062-9.32c-1.176-3.971-5.347-6.238-9.32-5.062
	c-8.699,2.576-14.767,3.838-16.36,4.152c-4.588-7.235-10.082-13.92-16.442-19.908c-20.656-19.452-48.639-30.166-78.791-30.166
	c-41.248,0-75.911,19.549-95.183,50.095c-4.802-0.944-64.461-13.383-104.609-53.759c5.422-51.49,29.934-108.136,66.046-152.298
	c39.858-48.745,87.346-75.59,133.716-75.59s93.857,26.845,133.716,75.59c36.104,44.152,60.613,100.784,66.042,152.265
	c-18.63,18.723-41.156,31.202-58.922,38.964C393.06,338.041,391.327,342.463,392.985,346.257z M473.737,137.513
	c-7.372,17.179-20.245,31.803-40.247,45.682c-9.326-16.784-20.117-32.828-32.142-47.534c-3.073-3.758-6.197-7.379-9.357-10.893
	c2.744-6.78,5.781-13.344,9.088-19.528c1.954-3.652,0.576-8.196-3.076-10.15c-3.654-1.956-8.195-0.576-10.149,3.076
	c-2.533,4.734-4.906,9.68-7.136,14.751c-10.352-10.247-21.093-19.208-32.101-26.851c10.827-10.831,28.769-26.563,52.315-39.413
	c18.313-9.993,36.932-16.598,55.698-19.801c-15.319,8.294-31.78,20.65-47.164,39.086c-2.653,3.18-2.227,7.909,0.954,10.562
	c1.402,1.171,3.106,1.742,4.801,1.742c2.147,0,4.279-0.917,5.763-2.695c22.219-26.628,46.744-39.25,65.589-45.227
	c-4.665,9.882-8.263,24.202-6.22,43.878C483.084,100.511,480.983,120.63,473.737,137.513z"/>
<g>
</g>
<g>
</g>
<g>
</g>
<g>
</g>
<g>
</g>
<g>
</g>
<g>
</g>
<g>
</g>
<g>
</g>
<g>
</g>
<g>
</g>
<g>
</g>
<g>
</g>
<g>
</g>
<g>
</g>
</svg>
